<?xml version="1.0" standalone="no"?>
<!DOCTYPE svg PUBLIC "-//W3C//DTD SVG 20010904//EN"
 "http://www.w3.org/TR/2001/REC-SVG-20010904/DTD/svg10.dtd">
<svg version="1.0" xmlns="http://www.w3.org/2000/svg"
 width="553.000000pt" height="553.000000pt" viewBox="0 0 553.000000 553.000000"
 preserveAspectRatio="xMidYMid meet">
<metadata>
Created by potrace 1.14, written by Peter Selinger 2001-2017
</metadata>
<g transform="translate(0.000000,553.000000) scale(0.100000,-0.100000)"
fill="#000000" stroke="none">
<path d="M612 5519 c-240 -40 -463 -219 -555 -445 -55 -137 -52 3 -52 -2314
l0 -2145 23 -75 c43 -136 97 -226 194 -322 75 -75 101 -94 190 -137 57 -27
128 -55 158 -63 45 -11 440 -13 2200 -13 l2145 0 75 23 c136 43 226 97 322
194 75 75 94 101 137 190 27 57 55 128 63 158 11 45 13 440 13 2200 l0 2145
-23 75 c-69 221 -229 403 -422 480 -146 59 39 54 -2285 56 -1197 1 -2153 -2
-2183 -7z m3827 -1425 c112 -20 230 -58 324 -105 82 -41 197 -115 197 -127 0
-4 -43 -111 -96 -239 l-97 -232 -56 38 c-239 162 -551 205 -757 104 -158 -77
-249 -251 -261 -498 l-5 -110 29 45 c69 106 193 196 323 234 146 44 353 27
488 -39 269 -133 422 -399 422 -733 0 -239 -60 -413 -200 -580 -172 -206 -462
-307 -781 -273 -471 51 -762 348 -855 871 -22 124 -32 351 -23 508 30 521 238
877 616 1054 204 96 479 127 732 82z m-2408 -25 c247 -25 407 -96 548 -244 80
-85 131 -177 163 -294 30 -110 30 -343 0 -454 -59 -217 -230 -402 -436 -472
-31 -11 -56 -22 -56 -26 0 -4 16 -13 35 -19 56 -18 151 -95 198 -159 24 -32
126 -209 227 -392 100 -184 191 -349 202 -366 l20 -33 -355 0 -354 0 -223 408
c-122 224 -231 418 -243 430 -12 13 -44 36 -72 50 -46 24 -62 27 -192 30
l-143 4 0 -461 0 -461 -325 0 -325 0 0 1228 c0 676 3 1232 7 1235 11 11 1211
8 1324 -4z"/>
<path d="M3957 2726 c-139 -52 -221 -225 -188 -400 29 -157 125 -250 271 -263
162 -15 292 94 320 271 25 157 -44 320 -163 383 -43 22 -188 28 -240 9z"/>
<path d="M1350 3279 l0 -302 268 6 c290 6 338 13 421 64 158 98 156 385 -3
478 -84 49 -128 55 -418 55 l-268 0 0 -301z"/>
</g>
</svg>
