<svg width="203" height="26" viewBox="0 0 203 26" fill="none" xmlns="http://www.w3.org/2000/svg">
<path d="M0 25.025V0.350002H10.71C13.4167 0.350002 15.505 1.00333 16.975 2.31C18.445 3.59333 19.18 5.40167 19.18 7.735C19.18 9.57833 18.7017 11.1067 17.745 12.32C16.7883 13.51 15.4117 14.315 13.615 14.735C14.805 15.1083 15.785 16.0067 16.555 17.43L20.685 25.025H15.75L11.48 17.15C11.06 16.38 10.5583 15.855 9.975 15.575C9.415 15.295 8.69167 15.155 7.805 15.155H4.48V25.025H0ZM4.48 11.83H9.94C13.2067 11.83 14.84 10.5 14.84 7.84C14.84 5.20334 13.2067 3.885 9.94 3.885H4.48V11.83Z" fill="#1AA530"/>
<path d="M23.9941 25.025V0.350002H40.4091V3.92H28.2991V10.71H39.6391V14.28H28.2991V21.455H40.4091V25.025H23.9941Z" fill="#1AA530"/>
<path d="M41.7736 25.025L52.9386 0.350002H56.6136L67.7786 25.025H63.2286L60.7786 19.32H48.7386L46.3236 25.025H41.7736ZM54.7236 5.215L50.2786 15.75H59.2386L54.7936 5.215H54.7236Z" fill="#1AA530"/>
<path d="M70.4785 25.025V0.350002H74.9585V21.21H86.7885V25.025H70.4785Z" fill="#1AA530"/>
<path d="M90.1318 25.025V0.350002H94.6118V25.025H90.1318Z" fill="#1AA530"/>
<path d="M105.926 25.025V4.095H97.4556V0.350002H118.876V4.095H110.406V25.025H105.926Z" fill="#1AA530"/>
<path d="M128.038 25.025V13.685L118.553 0.350002H123.768L130.348 9.69501L136.963 0.350002H141.968L132.518 13.72V25.025H128.038Z" fill="#1AA530"/>
<path d="M152.509 25.375C149.452 25.375 147.084 24.3017 145.404 22.155C143.747 20.0083 142.919 16.9983 142.919 13.125C142.919 8.94834 143.852 5.71667 145.719 3.43C147.609 1.14333 150.211 0 153.524 0C154.831 0 156.126 0.245002 157.409 0.735003C158.692 1.20167 159.789 1.87833 160.699 2.765L159.229 6.125C158.366 5.33167 157.444 4.74833 156.464 4.375C155.484 3.97833 154.481 3.78 153.454 3.78C151.424 3.78 149.872 4.49167 148.799 5.915C147.726 7.33833 147.189 9.46167 147.189 12.285V13.3C147.679 12.0167 148.472 11.0133 149.569 10.29C150.666 9.56668 151.926 9.205 153.349 9.205C154.772 9.205 156.032 9.54334 157.129 10.22C158.226 10.8967 159.089 11.83 159.719 13.02C160.349 14.21 160.664 15.575 160.664 17.115C160.664 18.7017 160.314 20.125 159.614 21.385C158.937 22.6217 157.981 23.6017 156.744 24.325C155.531 25.025 154.119 25.375 152.509 25.375ZM152.264 21.805C153.524 21.805 154.539 21.3967 155.309 20.58C156.102 19.74 156.499 18.6433 156.499 17.29C156.499 15.9367 156.102 14.84 155.309 14C154.539 13.16 153.524 12.74 152.264 12.74C151.004 12.74 149.977 13.16 149.184 14C148.414 14.84 148.029 15.9367 148.029 17.29C148.029 18.6433 148.414 19.74 149.184 20.58C149.977 21.3967 151.004 21.805 152.264 21.805Z" fill="#1AA530"/>
<path d="M163.975 25.025V20.16H168.875V25.025H163.975Z" fill="#1AA530"/>
<path d="M180.337 25.375C178.54 25.375 176.977 25.0133 175.647 24.29C174.317 23.5433 173.29 22.4933 172.567 21.14C171.843 19.7867 171.482 18.2 171.482 16.38C171.482 14.56 171.843 12.9967 172.567 11.69C173.29 10.36 174.317 9.345 175.647 8.645C176.977 7.92167 178.54 7.56001 180.337 7.56001C181.433 7.56001 182.518 7.735 183.592 8.085C184.665 8.435 185.552 8.925 186.252 9.555L184.957 12.6C184.35 12.0633 183.662 11.655 182.892 11.375C182.145 11.095 181.422 10.955 180.722 10.955C179.205 10.955 178.027 11.4333 177.187 12.39C176.37 13.3233 175.962 14.665 175.962 16.415C175.962 18.1417 176.37 19.5067 177.187 20.51C178.027 21.49 179.205 21.98 180.722 21.98C181.398 21.98 182.122 21.84 182.892 21.56C183.662 21.28 184.35 20.86 184.957 20.3L186.252 23.38C185.552 23.9867 184.653 24.4767 183.557 24.85C182.483 25.2 181.41 25.375 180.337 25.375Z" fill="#1AA530"/>
<path d="M188.375 25.025V22.19L197.195 11.2H188.375V7.91H201.955V10.745L193.135 21.735H202.34V25.025H188.375Z" fill="#1AA530"/>
</svg>
